<svg width="320" height="136" viewBox="0 0 320 136" fill="none" xmlns="http://www.w3.org/2000/svg">
<path d="M1.40909 54H8.22727V52.75H2.81818V42.3636H1.40909V54ZM13.7727 54.1818C16.1364 54.1818 17.7273 52.3864 17.7273 49.6818C17.7273 46.9545 16.1364 45.1591 13.7727 45.1591C11.4091 45.1591 9.81818 46.9545 9.81818 49.6818C9.81818 52.3864 11.4091 54.1818 13.7727 54.1818ZM13.7727 52.9773C11.9773 52.9773 11.1591 51.4318 11.1591 49.6818C11.1591 47.9318 11.9773 46.3636 13.7727 46.3636C15.5682 46.3636 16.3864 47.9318 16.3864 49.6818C16.3864 51.4318 15.5682 52.9773 13.7727 52.9773ZM19.7741 54H21.1151V48.4773C21.1151 47.2955 22.0469 46.4318 23.3196 46.4318C23.6776 46.4318 24.0469 46.5 24.1378 46.5227V45.1591C23.9844 45.1477 23.6321 45.1364 23.4332 45.1364C22.3878 45.1364 21.4787 45.7273 21.1605 46.5909H21.0696V45.2727H19.7741V54ZM29.1207 54.1818C30.8935 54.1818 32.1889 53.2955 32.598 51.9773L31.3026 51.6136C30.9616 52.5227 30.1719 52.9773 29.1207 52.9773C27.5469 52.9773 26.4616 51.9602 26.3991 50.0909H32.7344V49.5227C32.7344 46.2727 30.8026 45.1591 28.9844 45.1591C26.6207 45.1591 25.0526 47.0227 25.0526 49.7045C25.0526 52.3864 26.598 54.1818 29.1207 54.1818ZM26.3991 48.9318C26.4901 47.5739 27.4503 46.3636 28.9844 46.3636C30.4389 46.3636 31.3707 47.4545 31.3707 48.9318H26.3991ZM34.7741 54H36.1151V48.5455C36.1151 47.267 37.0469 46.3636 38.0923 46.3636C39.1094 46.3636 39.8196 47.0284 39.8196 48.0227V54H41.1832V48.3182C41.1832 47.1932 41.8878 46.3636 43.1151 46.3636C44.0696 46.3636 44.8878 46.8693 44.8878 48.1591V54H46.2287V48.1591C46.2287 46.108 45.1264 45.1591 43.5696 45.1591C42.3196 45.1591 41.4048 45.733 40.956 46.6364H40.8651C40.4332 45.7045 39.6719 45.1591 38.5241 45.1591C37.3878 45.1591 36.5469 45.7045 36.1832 46.6364H36.0696V45.2727H34.7741V54ZM53.1804 54H54.5213V45.2727H53.1804V54ZM53.8622 43.8182C54.3849 43.8182 54.8168 43.4091 54.8168 42.9091C54.8168 42.4091 54.3849 42 53.8622 42C53.3395 42 52.9077 42.4091 52.9077 42.9091C52.9077 43.4091 53.3395 43.8182 53.8622 43.8182ZM56.9773 57.2727H58.3182V52.6591H58.4318C58.7273 53.1364 59.2955 54.1818 60.9773 54.1818C63.1591 54.1818 64.6818 52.4318 64.6818 49.6591C64.6818 46.9091 63.1591 45.1591 60.9545 45.1591C59.25 45.1591 58.7273 46.2045 58.4318 46.6591H58.2727V45.2727H56.9773V57.2727ZM58.2955 49.6364C58.2955 47.6818 59.1591 46.3636 60.7955 46.3636C62.5 46.3636 63.3409 47.7955 63.3409 49.6364C63.3409 51.5 62.4773 52.9773 60.7955 52.9773C59.1818 52.9773 58.2955 51.6136 58.2955 49.6364ZM72.9091 47.2273C72.4886 45.9886 71.5455 45.1591 69.8182 45.1591C67.9773 45.1591 66.6136 46.2045 66.6136 47.6818C66.6136 48.8864 67.3295 49.6932 68.9318 50.0682L70.3864 50.4091C71.267 50.6136 71.6818 51.0341 71.6818 51.6364C71.6818 52.3864 70.8864 53 69.6364 53C68.5398 53 67.8523 52.5284 67.6136 51.5909L66.3409 51.9091C66.6534 53.392 67.875 54.1818 69.6591 54.1818C71.6875 54.1818 73.0682 53.0739 73.0682 51.5682C73.0682 50.3523 72.3068 49.5852 70.75 49.2045L69.4545 48.8864C68.4205 48.6307 67.9545 48.2841 67.9545 47.6136C67.9545 46.8636 68.75 46.3182 69.8182 46.3182C70.9886 46.3182 71.4716 46.9659 71.7045 47.5682L72.9091 47.2273ZM80.5866 50.4318C80.5866 52.0682 79.3366 52.8182 78.3366 52.8182C77.223 52.8182 76.4276 52 76.4276 50.7273V45.2727H75.0866V50.8182C75.0866 53.0455 76.2685 54.1136 77.9048 54.1136C79.223 54.1136 80.0866 53.4091 80.4957 52.5227H80.5866V54H81.9276V45.2727H80.5866V50.4318ZM84.3835 54H85.7244V48.5455C85.7244 47.267 86.6562 46.3636 87.7017 46.3636C88.7188 46.3636 89.429 47.0284 89.429 48.0227V54H90.7926V48.3182C90.7926 47.1932 91.4972 46.3636 92.7244 46.3636C93.679 46.3636 94.4972 46.8693 94.4972 48.1591V54H95.8381V48.1591C95.8381 46.108 94.7358 45.1591 93.179 45.1591C91.929 45.1591 91.0142 45.733 90.5653 46.6364H90.4744C90.0426 45.7045 89.2812 45.1591 88.1335 45.1591C86.9972 45.1591 86.1562 45.7045 85.7926 46.6364H85.679V45.2727H84.3835V54ZM106.085 54.1818C107.767 54.1818 108.335 53.1364 108.631 52.6591H108.79V54H110.085V42.3636H108.744V46.6591H108.631C108.335 46.2045 107.812 45.1591 106.108 45.1591C103.903 45.1591 102.381 46.9091 102.381 49.6591C102.381 52.4318 103.903 54.1818 106.085 54.1818ZM106.267 52.9773C104.585 52.9773 103.722 51.5 103.722 49.6364C103.722 47.7955 104.562 46.3636 106.267 46.3636C107.903 46.3636 108.767 47.6818 108.767 49.6364C108.767 51.6136 107.881 52.9773 106.267 52.9773ZM116.273 54.1818C118.636 54.1818 120.227 52.3864 120.227 49.6818C120.227 46.9545 118.636 45.1591 116.273 45.1591C113.909 45.1591 112.318 46.9545 112.318 49.6818C112.318 52.3864 113.909 54.1818 116.273 54.1818ZM116.273 52.9773C114.477 52.9773 113.659 51.4318 113.659 49.6818C113.659 47.9318 114.477 46.3636 116.273 46.3636C118.068 46.3636 118.886 47.9318 118.886 49.6818C118.886 51.4318 118.068 52.9773 116.273 52.9773ZM123.615 42.3636H122.274V54H123.615V42.3636ZM129.616 54.1818C131.98 54.1818 133.571 52.3864 133.571 49.6818C133.571 46.9545 131.98 45.1591 129.616 45.1591C127.253 45.1591 125.662 46.9545 125.662 49.6818C125.662 52.3864 127.253 54.1818 129.616 54.1818ZM129.616 52.9773C127.821 52.9773 127.003 51.4318 127.003 49.6818C127.003 47.9318 127.821 46.3636 129.616 46.3636C131.412 46.3636 132.23 47.9318 132.23 49.6818C132.23 51.4318 131.412 52.9773 129.616 52.9773ZM135.618 54H136.959V48.4773C136.959 47.2955 137.891 46.4318 139.163 46.4318C139.521 46.4318 139.891 46.5 139.982 46.5227V45.1591C139.828 45.1477 139.476 45.1364 139.277 45.1364C138.232 45.1364 137.322 45.7273 137.004 46.5909H136.913V45.2727H135.618V54ZM152.253 47.2273C151.832 45.9886 150.889 45.1591 149.162 45.1591C147.321 45.1591 145.957 46.2045 145.957 47.6818C145.957 48.8864 146.673 49.6932 148.276 50.0682L149.73 50.4091C150.611 50.6136 151.026 51.0341 151.026 51.6364C151.026 52.3864 150.23 53 148.98 53C147.884 53 147.196 52.5284 146.957 51.5909L145.685 51.9091C145.997 53.392 147.219 54.1818 149.003 54.1818C151.031 54.1818 152.412 53.0739 152.412 51.5682C152.412 50.3523 151.651 49.5852 150.094 49.2045L148.798 48.8864C147.764 48.6307 147.298 48.2841 147.298 47.6136C147.298 46.8636 148.094 46.3182 149.162 46.3182C150.332 46.3182 150.815 46.9659 151.048 47.5682L152.253 47.2273ZM154.43 54H155.771V45.2727H154.43V54ZM155.112 43.8182C155.635 43.8182 156.067 43.4091 156.067 42.9091C156.067 42.4091 155.635 42 155.112 42C154.589 42 154.158 42.4091 154.158 42.9091C154.158 43.4091 154.589 43.8182 155.112 43.8182ZM162.023 45.2727H160.159V43.1818H158.818V45.2727H157.5V46.4091H158.818V51.8636C158.818 53.3864 160.045 54.1136 161.182 54.1136C161.682 54.1136 162 54.0227 162.182 53.9545L161.909 52.75C161.795 52.7727 161.614 52.8182 161.318 52.8182C160.727 52.8182 160.159 52.6364 160.159 51.5V46.4091H162.023V45.2727ZM171.108 54.2045C172.631 54.2045 173.426 53.3864 173.699 52.8182H173.767V54H175.108V48.25C175.108 45.4773 172.994 45.1591 171.881 45.1591C170.562 45.1591 169.062 45.6136 168.381 47.2045L169.653 47.6591C169.949 47.0227 170.648 46.3409 171.926 46.3409C173.159 46.3409 173.767 46.9943 173.767 48.1136V48.1591C173.767 48.8068 173.108 48.75 171.517 48.9545C169.898 49.1648 168.131 49.5227 168.131 51.5227C168.131 53.2273 169.449 54.2045 171.108 54.2045ZM171.312 53C170.244 53 169.472 52.5227 169.472 51.5909C169.472 50.5682 170.403 50.25 171.449 50.1136C172.017 50.0455 173.54 49.8864 173.767 49.6136V50.8409C173.767 51.9318 172.903 53 171.312 53ZM177.555 54H178.896V48.5455C178.896 47.267 179.828 46.3636 180.874 46.3636C181.891 46.3636 182.601 47.0284 182.601 48.0227V54H183.964V48.3182C183.964 47.1932 184.669 46.3636 185.896 46.3636C186.851 46.3636 187.669 46.8693 187.669 48.1591V54H189.01V48.1591C189.01 46.108 187.908 45.1591 186.351 45.1591C185.101 45.1591 184.186 45.733 183.737 46.6364H183.646C183.214 45.7045 182.453 45.1591 181.305 45.1591C180.169 45.1591 179.328 45.7045 178.964 46.6364H178.851V45.2727H177.555V54ZM195.121 54.1818C196.893 54.1818 198.189 53.2955 198.598 51.9773L197.303 51.6136C196.962 52.5227 196.172 52.9773 195.121 52.9773C193.547 52.9773 192.462 51.9602 192.399 50.0909H198.734V49.5227C198.734 46.2727 196.803 45.1591 194.984 45.1591C192.621 45.1591 191.053 47.0227 191.053 49.7045C191.053 52.3864 192.598 54.1818 195.121 54.1818ZM192.399 48.9318C192.49 47.5739 193.45 46.3636 194.984 46.3636C196.439 46.3636 197.371 47.4545 197.371 48.9318H192.399ZM204.57 45.2727H202.706V43.1818H201.365V45.2727H200.047V46.4091H201.365V51.8636C201.365 53.3864 202.592 54.1136 203.729 54.1136C204.229 54.1136 204.547 54.0227 204.729 53.9545L204.456 52.75C204.342 52.7727 204.161 52.8182 203.865 52.8182C203.274 52.8182 202.706 52.6364 202.706 51.5V46.4091H204.57V45.2727ZM208.587 52.4091H207.132L207.064 53.0455C206.899 54.5852 206.575 56.1193 206.428 56.8409H207.45C207.723 56.0682 208.303 54.3182 208.496 53.0227L208.587 52.4091ZM219.116 54.1818C221.048 54.1818 222.321 53 222.548 51.4545H221.207C220.957 52.4091 220.162 52.9773 219.116 52.9773C217.526 52.9773 216.503 51.6591 216.503 49.6364C216.503 47.6591 217.548 46.3636 219.116 46.3636C220.298 46.3636 221.003 47.0909 221.207 47.8864H222.548C222.321 46.25 220.935 45.1591 219.094 45.1591C216.73 45.1591 215.162 47.0227 215.162 49.6818C215.162 52.2955 216.662 54.1818 219.116 54.1818ZM228.054 54.1818C230.418 54.1818 232.009 52.3864 232.009 49.6818C232.009 46.9545 230.418 45.1591 228.054 45.1591C225.69 45.1591 224.099 46.9545 224.099 49.6818C224.099 52.3864 225.69 54.1818 228.054 54.1818ZM228.054 52.9773C226.259 52.9773 225.44 51.4318 225.44 49.6818C225.44 47.9318 226.259 46.3636 228.054 46.3636C229.849 46.3636 230.668 47.9318 230.668 49.6818C230.668 51.4318 229.849 52.9773 228.054 52.9773ZM235.396 48.75C235.396 47.2273 236.339 46.3636 237.624 46.3636C238.868 46.3636 239.624 47.1761 239.624 48.5455V54H240.964V48.4545C240.964 46.2273 239.777 45.1591 238.01 45.1591C236.692 45.1591 235.874 45.75 235.464 46.6364H235.351V45.2727H234.055V54H235.396V48.75ZM249.597 47.2273C249.176 45.9886 248.233 45.1591 246.506 45.1591C244.665 45.1591 243.301 46.2045 243.301 47.6818C243.301 48.8864 244.017 49.6932 245.619 50.0682L247.074 50.4091C247.955 50.6136 248.369 51.0341 248.369 51.6364C248.369 52.3864 247.574 53 246.324 53C245.227 53 244.54 52.5284 244.301 51.5909L243.028 51.9091C243.341 53.392 244.562 54.1818 246.347 54.1818C248.375 54.1818 249.756 53.0739 249.756 51.5682C249.756 50.3523 248.994 49.5852 247.438 49.2045L246.142 48.8864C245.108 48.6307 244.642 48.2841 244.642 47.6136C244.642 46.8636 245.438 46.3182 246.506 46.3182C247.676 46.3182 248.159 46.9659 248.392 47.5682L249.597 47.2273ZM255.433 54.1818C257.206 54.1818 258.501 53.2955 258.911 51.9773L257.615 51.6136C257.274 52.5227 256.484 52.9773 255.433 52.9773C253.859 52.9773 252.774 51.9602 252.712 50.0909H259.047V49.5227C259.047 46.2727 257.115 45.1591 255.297 45.1591C252.933 45.1591 251.365 47.0227 251.365 49.7045C251.365 52.3864 252.911 54.1818 255.433 54.1818ZM252.712 48.9318C252.803 47.5739 253.763 46.3636 255.297 46.3636C256.751 46.3636 257.683 47.4545 257.683 48.9318H252.712ZM264.632 54.1818C266.564 54.1818 267.837 53 268.064 51.4545H266.723C266.473 52.4091 265.678 52.9773 264.632 52.9773C263.041 52.9773 262.018 51.6591 262.018 49.6364C262.018 47.6591 263.064 46.3636 264.632 46.3636C265.814 46.3636 266.518 47.0909 266.723 47.8864H268.064C267.837 46.25 266.45 45.1591 264.609 45.1591C262.246 45.1591 260.678 47.0227 260.678 49.6818C260.678 52.2955 262.178 54.1818 264.632 54.1818ZM273.82 45.2727H271.956V43.1818H270.615V45.2727H269.297V46.4091H270.615V51.8636C270.615 53.3864 271.842 54.1136 272.979 54.1136C273.479 54.1136 273.797 54.0227 273.979 53.9545L273.706 52.75C273.592 52.7727 273.411 52.8182 273.115 52.8182C272.524 52.8182 271.956 52.6364 271.956 51.5V46.4091H273.82V45.2727ZM279.402 54.1818C281.175 54.1818 282.47 53.2955 282.879 51.9773L281.584 51.6136C281.243 52.5227 280.453 52.9773 279.402 52.9773C277.828 52.9773 276.743 51.9602 276.68 50.0909H283.016V49.5227C283.016 46.2727 281.084 45.1591 279.266 45.1591C276.902 45.1591 275.334 47.0227 275.334 49.7045C275.334 52.3864 276.879 54.1818 279.402 54.1818ZM276.68 48.9318C276.771 47.5739 277.732 46.3636 279.266 46.3636C280.72 46.3636 281.652 47.4545 281.652 48.9318H276.68ZM293.351 45.2727H291.487V43.1818H290.146V45.2727H288.828V46.4091H290.146V51.8636C290.146 53.3864 291.374 54.1136 292.51 54.1136C293.01 54.1136 293.328 54.0227 293.51 53.9545L293.237 52.75C293.124 52.7727 292.942 52.8182 292.646 52.8182C292.055 52.8182 291.487 52.6364 291.487 51.5V46.4091H293.351V45.2727ZM300.868 50.4318C300.868 52.0682 299.618 52.8182 298.618 52.8182C297.504 52.8182 296.709 52 296.709 50.7273V45.2727H295.368V50.8182C295.368 53.0455 296.55 54.1136 298.186 54.1136C299.504 54.1136 300.368 53.4091 300.777 52.5227H300.868V54H302.209V45.2727H300.868V50.4318ZM304.665 54H306.006V48.4773C306.006 47.2955 306.938 46.4318 308.21 46.4318C308.568 46.4318 308.938 46.5 309.028 46.5227V45.1591C308.875 45.1477 308.523 45.1364 308.324 45.1364C307.278 45.1364 306.369 45.7273 306.051 46.5909H305.96V45.2727H304.665V54ZM3.79545 78.2045C5.31818 78.2045 6.11364 77.3864 6.38636 76.8182H6.45455V78H7.79545V72.25C7.79545 69.4773 5.68182 69.1591 4.56818 69.1591C3.25 69.1591 1.75 69.6136 1.06818 71.2045L2.34091 71.6591C2.63636 71.0227 3.33523 70.3409 4.61364 70.3409C5.84659 70.3409 6.45455 70.9943 6.45455 72.1136V72.1591C6.45455 72.8068 5.79545 72.75 4.20455 72.9545C2.58523 73.1648 0.818182 73.5227 0.818182 75.5227C0.818182 77.2273 2.13636 78.2045 3.79545 78.2045ZM4 77C2.93182 77 2.15909 76.5227 2.15909 75.5909C2.15909 74.5682 3.09091 74.25 4.13636 74.1136C4.70455 74.0455 6.22727 73.8864 6.45455 73.6136V74.8409C6.45455 75.9318 5.59091 77 4 77ZM13.5384 78.1818C15.2202 78.1818 15.7884 77.1364 16.0838 76.6591H16.2429V78H17.5384V66.3636H16.1974V70.6591H16.0838C15.7884 70.2045 15.2656 69.1591 13.5611 69.1591C11.3565 69.1591 9.83381 70.9091 9.83381 73.6591C9.83381 76.4318 11.3565 78.1818 13.5384 78.1818ZM13.7202 76.9773C12.0384 76.9773 11.1747 75.5 11.1747 73.6364C11.1747 71.7955 12.0156 70.3636 13.7202 70.3636C15.3565 70.3636 16.2202 71.6818 16.2202 73.6364C16.2202 75.6136 15.3338 76.9773 13.7202 76.9773ZM20.1804 78H21.5213V69.2727H20.1804V78ZM20.8622 67.8182C21.3849 67.8182 21.8168 67.4091 21.8168 66.9091C21.8168 66.4091 21.3849 66 20.8622 66C20.3395 66 19.9077 66.4091 19.9077 66.9091C19.9077 67.4091 20.3395 67.8182 20.8622 67.8182ZM23.9773 81.2727H25.3182V76.6591H25.4318C25.7273 77.1364 26.2955 78.1818 27.9773 78.1818C30.1591 78.1818 31.6818 76.4318 31.6818 73.6591C31.6818 70.9091 30.1591 69.1591 27.9545 69.1591C26.25 69.1591 25.7273 70.2045 25.4318 70.6591H25.2727V69.2727H23.9773V81.2727ZM25.2955 73.6364C25.2955 71.6818 26.1591 70.3636 27.7955 70.3636C29.5 70.3636 30.3409 71.7955 30.3409 73.6364C30.3409 75.5 29.4773 76.9773 27.7955 76.9773C26.1818 76.9773 25.2955 75.6136 25.2955 73.6364ZM33.7273 78H35.0682V69.2727H33.7273V78ZM34.4091 67.8182C34.9318 67.8182 35.3636 67.4091 35.3636 66.9091C35.3636 66.4091 34.9318 66 34.4091 66C33.8864 66 33.4545 66.4091 33.4545 66.9091C33.4545 67.4091 33.8864 67.8182 34.4091 67.8182ZM43.706 71.2273C43.2855 69.9886 42.3423 69.1591 40.6151 69.1591C38.7741 69.1591 37.4105 70.2045 37.4105 71.6818C37.4105 72.8864 38.1264 73.6932 39.7287 74.0682L41.1832 74.4091C42.0639 74.6136 42.4787 75.0341 42.4787 75.6364C42.4787 76.3864 41.6832 77 40.4332 77C39.3366 77 38.6491 76.5284 38.4105 75.5909L37.1378 75.9091C37.4503 77.392 38.6719 78.1818 40.456 78.1818C42.4844 78.1818 43.8651 77.0739 43.8651 75.5682C43.8651 74.3523 43.1037 73.5852 41.5469 73.2045L40.2514 72.8864C39.2173 72.6307 38.7514 72.2841 38.7514 71.6136C38.7514 70.8636 39.5469 70.3182 40.6151 70.3182C41.7855 70.3182 42.2685 70.9659 42.5014 71.5682L43.706 71.2273ZM49.429 78.1818C51.3608 78.1818 52.6335 77 52.8608 75.4545H51.5199C51.2699 76.4091 50.4744 76.9773 49.429 76.9773C47.8381 76.9773 46.8153 75.6591 46.8153 73.6364C46.8153 71.6591 47.8608 70.3636 49.429 70.3636C50.6108 70.3636 51.3153 71.0909 51.5199 71.8864H52.8608C52.6335 70.25 51.2472 69.1591 49.4062 69.1591C47.0426 69.1591 45.4744 71.0227 45.4744 73.6818C45.4744 76.2955 46.9744 78.1818 49.429 78.1818ZM54.821 78H56.1619V69.2727H54.821V78ZM55.5028 67.8182C56.0256 67.8182 56.4574 67.4091 56.4574 66.9091C56.4574 66.4091 56.0256 66 55.5028 66C54.9801 66 54.5483 66.4091 54.5483 66.9091C54.5483 67.4091 54.9801 67.8182 55.5028 67.8182ZM59.9588 72.75C59.9588 71.2273 60.902 70.3636 62.1861 70.3636C63.4304 70.3636 64.1861 71.1761 64.1861 72.5455V78H65.527V72.4545C65.527 70.2273 64.3395 69.1591 62.5724 69.1591C61.2543 69.1591 60.4361 69.75 60.027 70.6364H59.9134V69.2727H58.6179V78H59.9588V72.75ZM71.5 81.4545C73.5909 81.4545 75.2727 80.5 75.2727 78.25V69.2727H73.9773V70.6591H73.8409C73.5455 70.2045 73 69.1591 71.2955 69.1591C69.0909 69.1591 67.5682 70.9091 67.5682 73.5909C67.5682 76.3182 69.1591 77.8636 71.2727 77.8636C72.9773 77.8636 73.5227 76.8636 73.8182 76.3864H73.9318V78.1591C73.9318 79.6136 72.9091 80.2727 71.5 80.2727C69.9148 80.2727 69.358 79.4375 69 78.9545L67.9318 79.7045C68.4773 80.6193 69.5511 81.4545 71.5 81.4545ZM71.4545 76.6591C69.7727 76.6591 68.9091 75.3864 68.9091 73.5682C68.9091 71.7955 69.75 70.3636 71.4545 70.3636C73.0909 70.3636 73.9545 71.6818 73.9545 73.5682C73.9545 75.5 73.0682 76.6591 71.4545 76.6591ZM85.8864 78.1818C87.6591 78.1818 88.9545 77.2955 89.3636 75.9773L88.0682 75.6136C87.7273 76.5227 86.9375 76.9773 85.8864 76.9773C84.3125 76.9773 83.2273 75.9602 83.1648 74.0909H89.5V73.5227C89.5 70.2727 87.5682 69.1591 85.75 69.1591C83.3864 69.1591 81.8182 71.0227 81.8182 73.7045C81.8182 76.3864 83.3636 78.1818 85.8864 78.1818ZM83.1648 72.9318C83.2557 71.5739 84.2159 70.3636 85.75 70.3636C87.2045 70.3636 88.1364 71.4545 88.1364 72.9318H83.1648ZM92.8807 66.3636H91.5398V78H92.8807V66.3636ZM95.3366 78H96.6776V69.2727H95.3366V78ZM96.0185 67.8182C96.5412 67.8182 96.973 67.4091 96.973 66.9091C96.973 66.4091 96.5412 66 96.0185 66C95.4957 66 95.0639 66.4091 95.0639 66.9091C95.0639 67.4091 95.4957 67.8182 96.0185 67.8182ZM102.929 69.2727H101.065V67.1818H99.7244V69.2727H98.4062V70.4091H99.7244V75.8636C99.7244 77.3864 100.952 78.1136 102.088 78.1136C102.588 78.1136 102.906 78.0227 103.088 77.9545L102.815 76.75C102.702 76.7727 102.52 76.8182 102.224 76.8182C101.634 76.8182 101.065 76.6364 101.065 75.5V70.4091H102.929V69.2727ZM105.923 78.0909C106.486 78.0909 106.946 77.6307 106.946 77.0682C106.946 76.5057 106.486 76.0455 105.923 76.0455C105.361 76.0455 104.901 76.5057 104.901 77.0682C104.901 77.6307 105.361 78.0909 105.923 78.0909ZM121.67 66.3636V73.9545C121.67 75.6591 120.5 76.8864 118.557 76.8864C116.614 76.8864 115.443 75.6591 115.443 73.9545V66.3636H114.034V74.0682C114.034 76.4545 115.818 78.2045 118.557 78.2045C121.295 78.2045 123.08 76.4545 123.08 74.0682V66.3636H121.67ZM127.053 66.3636H125.712V78H127.053V66.3636ZM133.304 69.2727H131.44V67.1818H130.099V69.2727H128.781V70.4091H130.099V75.8636C130.099 77.3864 131.327 78.1136 132.463 78.1136C132.963 78.1136 133.281 78.0227 133.463 77.9545L133.19 76.75C133.077 76.7727 132.895 76.8182 132.599 76.8182C132.009 76.8182 131.44 76.6364 131.44 75.5V70.4091H133.304V69.2727ZM135.321 78H136.662V72.4773C136.662 71.2955 137.594 70.4318 138.866 70.4318C139.224 70.4318 139.594 70.5 139.685 70.5227V69.1591C139.531 69.1477 139.179 69.1364 138.98 69.1364C137.935 69.1364 137.026 69.7273 136.707 70.5909H136.616V69.2727H135.321V78ZM141.274 78H142.615V69.2727H141.274V78ZM141.956 67.8182C142.479 67.8182 142.911 67.4091 142.911 66.9091C142.911 66.4091 142.479 66 141.956 66C141.433 66 141.001 66.4091 141.001 66.9091C141.001 67.4091 141.433 67.8182 141.956 67.8182ZM148.616 78.1818C150.548 78.1818 151.821 77 152.048 75.4545H150.707C150.457 76.4091 149.662 76.9773 148.616 76.9773C147.026 76.9773 146.003 75.6591 146.003 73.6364C146.003 71.6591 147.048 70.3636 148.616 70.3636C149.798 70.3636 150.503 71.0909 150.707 71.8864H152.048C151.821 70.25 150.435 69.1591 148.594 69.1591C146.23 69.1591 144.662 71.0227 144.662 73.6818C144.662 76.2955 146.162 78.1818 148.616 78.1818ZM157.668 78.1818C159.44 78.1818 160.736 77.2955 161.145 75.9773L159.849 75.6136C159.509 76.5227 158.719 76.9773 157.668 76.9773C156.094 76.9773 155.009 75.9602 154.946 74.0909H161.281V73.5227C161.281 70.2727 159.349 69.1591 157.531 69.1591C155.168 69.1591 153.599 71.0227 153.599 73.7045C153.599 76.3864 155.145 78.1818 157.668 78.1818ZM154.946 72.9318C155.037 71.5739 155.997 70.3636 157.531 70.3636C158.986 70.3636 159.918 71.4545 159.918 72.9318H154.946ZM169.503 71.2273C169.082 69.9886 168.139 69.1591 166.412 69.1591C164.571 69.1591 163.207 70.2045 163.207 71.6818C163.207 72.8864 163.923 73.6932 165.526 74.0682L166.98 74.4091C167.861 74.6136 168.276 75.0341 168.276 75.6364C168.276 76.3864 167.48 77 166.23 77C165.134 77 164.446 76.5284 164.207 75.5909L162.935 75.9091C163.247 77.392 164.469 78.1818 166.253 78.1818C168.281 78.1818 169.662 77.0739 169.662 75.5682C169.662 74.3523 168.901 73.5852 167.344 73.2045L166.048 72.8864C165.014 72.6307 164.548 72.2841 164.548 71.6136C164.548 70.8636 165.344 70.3182 166.412 70.3182C167.582 70.3182 168.065 70.9659 168.298 71.5682L169.503 71.2273ZM176.362 78H177.658V76.6591H177.817C178.112 77.1364 178.68 78.1818 180.362 78.1818C182.544 78.1818 184.067 76.4318 184.067 73.6591C184.067 70.9091 182.544 69.1591 180.339 69.1591C178.635 69.1591 178.112 70.2045 177.817 70.6591H177.703V66.3636H176.362V78ZM177.68 73.6364C177.68 71.6818 178.544 70.3636 180.18 70.3636C181.885 70.3636 182.726 71.7955 182.726 73.6364C182.726 75.5 181.862 76.9773 180.18 76.9773C178.567 76.9773 177.68 75.6136 177.68 73.6364ZM187.459 66.3636H186.118V78H187.459V66.3636ZM192.483 78.2045C194.006 78.2045 194.801 77.3864 195.074 76.8182H195.142V78H196.483V72.25C196.483 69.4773 194.369 69.1591 193.256 69.1591C191.938 69.1591 190.438 69.6136 189.756 71.2045L191.028 71.6591C191.324 71.0227 192.023 70.3409 193.301 70.3409C194.534 70.3409 195.142 70.9943 195.142 72.1136V72.1591C195.142 72.8068 194.483 72.75 192.892 72.9545C191.273 73.1648 189.506 73.5227 189.506 75.5227C189.506 77.2273 190.824 78.2045 192.483 78.2045ZM192.688 77C191.619 77 190.847 76.5227 190.847 75.5909C190.847 74.5682 191.778 74.25 192.824 74.1136C193.392 74.0455 194.915 73.8864 195.142 73.6136V74.8409C195.142 75.9318 194.278 77 192.688 77ZM200.271 72.75C200.271 71.2273 201.214 70.3636 202.499 70.3636C203.743 70.3636 204.499 71.1761 204.499 72.5455V78H205.839V72.4545C205.839 70.2273 204.652 69.1591 202.885 69.1591C201.567 69.1591 200.749 69.75 200.339 70.6364H200.226V69.2727H198.93V78H200.271V72.75ZM211.585 78.1818C213.267 78.1818 213.835 77.1364 214.131 76.6591H214.29V78H215.585V66.3636H214.244V70.6591H214.131C213.835 70.2045 213.312 69.1591 211.608 69.1591C209.403 69.1591 207.881 70.9091 207.881 73.6591C207.881 76.4318 209.403 78.1818 211.585 78.1818ZM211.767 76.9773C210.085 76.9773 209.222 75.5 209.222 73.6364C209.222 71.7955 210.062 70.3636 211.767 70.3636C213.403 70.3636 214.267 71.6818 214.267 73.6364C214.267 75.6136 213.381 76.9773 211.767 76.9773ZM218.227 78H219.568V69.2727H218.227V78ZM218.909 67.8182C219.432 67.8182 219.864 67.4091 219.864 66.9091C219.864 66.4091 219.432 66 218.909 66C218.386 66 217.955 66.4091 217.955 66.9091C217.955 67.4091 218.386 67.8182 218.909 67.8182ZM225.82 69.2727H223.956V67.1818H222.615V69.2727H221.297V70.4091H222.615V75.8636C222.615 77.3864 223.842 78.1136 224.979 78.1136C225.479 78.1136 225.797 78.0227 225.979 77.9545L225.706 76.75C225.592 76.7727 225.411 76.8182 225.115 76.8182C224.524 76.8182 223.956 76.6364 223.956 75.5V70.4091H225.82V69.2727ZM232.337 81.2727H233.678V76.6591H233.791C234.087 77.1364 234.655 78.1818 236.337 78.1818C238.518 78.1818 240.041 76.4318 240.041 73.6591C240.041 70.9091 238.518 69.1591 236.314 69.1591C234.609 69.1591 234.087 70.2045 233.791 70.6591H233.632V69.2727H232.337V81.2727ZM233.655 73.6364C233.655 71.6818 234.518 70.3636 236.155 70.3636C237.859 70.3636 238.7 71.7955 238.7 73.6364C238.7 75.5 237.837 76.9773 236.155 76.9773C234.541 76.9773 233.655 75.6136 233.655 73.6364ZM245.746 78.1818C247.518 78.1818 248.814 77.2955 249.223 75.9773L247.928 75.6136C247.587 76.5227 246.797 76.9773 245.746 76.9773C244.172 76.9773 243.087 75.9602 243.024 74.0909H249.359V73.5227C249.359 70.2727 247.428 69.1591 245.609 69.1591C243.246 69.1591 241.678 71.0227 241.678 73.7045C241.678 76.3864 243.223 78.1818 245.746 78.1818ZM243.024 72.9318C243.115 71.5739 244.075 70.3636 245.609 70.3636C247.064 70.3636 247.996 71.4545 247.996 72.9318H243.024ZM252.74 66.3636H251.399V78H252.74V66.3636ZM256.537 66.3636H255.196V78H256.537V66.3636ZM262.652 78.1818C264.425 78.1818 265.72 77.2955 266.129 75.9773L264.834 75.6136C264.493 76.5227 263.703 76.9773 262.652 76.9773C261.078 76.9773 259.993 75.9602 259.93 74.0909H266.266V73.5227C266.266 70.2727 264.334 69.1591 262.516 69.1591C260.152 69.1591 258.584 71.0227 258.584 73.7045C258.584 76.3864 260.129 78.1818 262.652 78.1818ZM259.93 72.9318C260.021 71.5739 260.982 70.3636 262.516 70.3636C263.97 70.3636 264.902 71.4545 264.902 72.9318H259.93ZM2.56818 96.75C2.56818 95.2273 3.51136 94.3636 4.79545 94.3636C6.03977 94.3636 6.79545 95.1761 6.79545 96.5455V102H8.13636V96.4545C8.13636 94.2273 6.94886 93.1591 5.18182 93.1591C3.86364 93.1591 3.04545 93.75 2.63636 94.6364H2.52273V93.2727H1.22727V102H2.56818V96.75ZM14.3821 93.2727H12.5185V91.1818H11.1776V93.2727H9.85938V94.4091H11.1776V99.8636C11.1776 101.386 12.4048 102.114 13.5412 102.114C14.0412 102.114 14.3594 102.023 14.5412 101.955L14.2685 100.75C14.1548 100.773 13.973 100.818 13.6776 100.818C13.0866 100.818 12.5185 100.636 12.5185 99.5V94.4091H14.3821V93.2727ZM19.9645 102.182C21.7372 102.182 23.0327 101.295 23.4418 99.9773L22.1463 99.6136C21.8054 100.523 21.0156 100.977 19.9645 100.977C18.3906 100.977 17.3054 99.9602 17.2429 98.0909H23.5781V97.5227C23.5781 94.2727 21.6463 93.1591 19.8281 93.1591C17.4645 93.1591 15.8963 95.0227 15.8963 97.7045C15.8963 100.386 17.4418 102.182 19.9645 102.182ZM17.2429 96.9318C17.3338 95.5739 18.294 94.3636 19.8281 94.3636C21.2827 94.3636 22.2145 95.4545 22.2145 96.9318H17.2429ZM31.7997 95.2273C31.3793 93.9886 30.4361 93.1591 28.7088 93.1591C26.8679 93.1591 25.5043 94.2045 25.5043 95.6818C25.5043 96.8864 26.2202 97.6932 27.8224 98.0682L29.277 98.4091C30.1577 98.6136 30.5724 99.0341 30.5724 99.6364C30.5724 100.386 29.777 101 28.527 101C27.4304 101 26.7429 100.528 26.5043 99.5909L25.2315 99.9091C25.544 101.392 26.7656 102.182 28.5497 102.182C30.5781 102.182 31.9588 101.074 31.9588 99.5682C31.9588 98.3523 31.1974 97.5852 29.6406 97.2045L28.3452 96.8864C27.3111 96.6307 26.8452 96.2841 26.8452 95.6136C26.8452 94.8636 27.6406 94.3182 28.7088 94.3182C29.8793 94.3182 30.3622 94.9659 30.5952 95.5682L31.7997 95.2273ZM41.2727 105.273V93.2727H39.9773V94.6591H39.8182C39.5227 94.2045 39 93.1591 37.2955 93.1591C35.0909 93.1591 33.5682 94.9091 33.5682 97.6591C33.5682 100.432 35.0909 102.182 37.2727 102.182C38.9545 102.182 39.5227 101.136 39.8182 100.659H39.9318V105.273H41.2727ZM39.9545 97.6364C39.9545 99.6136 39.0682 100.977 37.4545 100.977C35.7727 100.977 34.9091 99.5 34.9091 97.6364C34.9091 95.7955 35.75 94.3636 37.4545 94.3636C39.0909 94.3636 39.9545 95.6818 39.9545 97.6364ZM49.2273 98.4318C49.2273 100.068 47.9773 100.818 46.9773 100.818C45.8636 100.818 45.0682 100 45.0682 98.7273V93.2727H43.7273V98.8182C43.7273 101.045 44.9091 102.114 46.5455 102.114C47.8636 102.114 48.7273 101.409 49.1364 100.523H49.2273V102H50.5682V93.2727H49.2273V98.4318ZM56.6832 102.182C58.456 102.182 59.7514 101.295 60.1605 99.9773L58.8651 99.6136C58.5241 100.523 57.7344 100.977 56.6832 100.977C55.1094 100.977 54.0241 99.9602 53.9616 98.0909H60.2969V97.5227C60.2969 94.2727 58.3651 93.1591 56.5469 93.1591C54.1832 93.1591 52.6151 95.0227 52.6151 97.7045C52.6151 100.386 54.1605 102.182 56.6832 102.182ZM53.9616 96.9318C54.0526 95.5739 55.0128 94.3636 56.5469 94.3636C58.0014 94.3636 58.9332 95.4545 58.9332 96.9318H53.9616ZM68.1776 96.75C68.1776 95.2273 69.1207 94.3636 70.4048 94.3636C71.6491 94.3636 72.4048 95.1761 72.4048 96.5455V102H73.7457V96.4545C73.7457 94.2273 72.5582 93.1591 70.7912 93.1591C69.473 93.1591 68.6548 93.75 68.2457 94.6364H68.1321V93.2727H66.8366V102H68.1776V96.75ZM76.196 102H77.5369V93.2727H76.196V102ZM76.8778 91.8182C77.4006 91.8182 77.8324 91.4091 77.8324 90.9091C77.8324 90.4091 77.4006 90 76.8778 90C76.3551 90 75.9233 90.4091 75.9233 90.9091C75.9233 91.4091 76.3551 91.8182 76.8778 91.8182ZM80.1747 102H81.4702V100.659H81.6293C81.9247 101.136 82.4929 102.182 84.1747 102.182C86.3565 102.182 87.8793 100.432 87.8793 97.6591C87.8793 94.9091 86.3565 93.1591 84.152 93.1591C82.4474 93.1591 81.9247 94.2045 81.6293 94.6591H81.5156V90.3636H80.1747V102ZM81.4929 97.6364C81.4929 95.6818 82.3565 94.3636 83.9929 94.3636C85.6974 94.3636 86.5384 95.7955 86.5384 97.6364C86.5384 99.5 85.6747 100.977 83.9929 100.977C82.3793 100.977 81.4929 99.6136 81.4929 97.6364ZM91.2713 96.75C91.2713 95.2273 92.2429 94.3636 93.5668 94.3636C94.8281 94.3636 95.5895 95.1591 95.5895 96.5455V102H96.9304V96.4545C96.9304 94.2102 95.7372 93.1591 93.9531 93.1591C92.5781 93.1591 91.794 93.733 91.3849 94.6364H91.2713V90.3636H89.9304V102H91.2713V96.75ZM106.452 102.205C107.974 102.205 108.77 101.386 109.043 100.818H109.111V102H110.452V96.25C110.452 93.4773 108.338 93.1591 107.224 93.1591C105.906 93.1591 104.406 93.6136 103.724 95.2045L104.997 95.6591C105.293 95.0227 105.991 94.3409 107.27 94.3409C108.503 94.3409 109.111 94.9943 109.111 96.1136V96.1591C109.111 96.8068 108.452 96.75 106.861 96.9545C105.241 97.1648 103.474 97.5227 103.474 99.5227C103.474 101.227 104.793 102.205 106.452 102.205ZM106.656 101C105.588 101 104.815 100.523 104.815 99.5909C104.815 98.5682 105.747 98.25 106.793 98.1136C107.361 98.0455 108.884 97.8864 109.111 97.6136V98.8409C109.111 99.9318 108.247 101 106.656 101ZM112.899 102H114.24V96.4773C114.24 95.2955 115.172 94.4318 116.445 94.4318C116.803 94.4318 117.172 94.5 117.263 94.5227V93.1591C117.109 93.1477 116.757 93.1364 116.558 93.1364C115.513 93.1364 114.604 93.7273 114.286 94.5909H114.195V93.2727H112.899V102ZM122.132 102.182C124.064 102.182 125.337 101 125.564 99.4545H124.223C123.973 100.409 123.178 100.977 122.132 100.977C120.541 100.977 119.518 99.6591 119.518 97.6364C119.518 95.6591 120.564 94.3636 122.132 94.3636C123.314 94.3636 124.018 95.0909 124.223 95.8864H125.564C125.337 94.25 123.95 93.1591 122.109 93.1591C119.746 93.1591 118.178 95.0227 118.178 97.6818C118.178 100.295 119.678 102.182 122.132 102.182ZM133.024 98.4318C133.024 100.068 131.774 100.818 130.774 100.818C129.661 100.818 128.865 100 128.865 98.7273V93.2727H127.524V98.8182C127.524 101.045 128.706 102.114 130.342 102.114C131.661 102.114 132.524 101.409 132.933 100.523H133.024V102H134.365V93.2727H133.024V98.4318ZM144.98 102.182C146.753 102.182 148.048 101.295 148.457 99.9773L147.162 99.6136C146.821 100.523 146.031 100.977 144.98 100.977C143.406 100.977 142.321 99.9602 142.259 98.0909H148.594V97.5227C148.594 94.2727 146.662 93.1591 144.844 93.1591C142.48 93.1591 140.912 95.0227 140.912 97.7045C140.912 100.386 142.457 102.182 144.98 102.182ZM142.259 96.9318C142.349 95.5739 143.31 94.3636 144.844 94.3636C146.298 94.3636 147.23 95.4545 147.23 96.9318H142.259ZM151.974 90.3636H150.634V102H151.974V90.3636ZM158.089 102.182C159.862 102.182 161.158 101.295 161.567 99.9773L160.271 99.6136C159.93 100.523 159.141 100.977 158.089 100.977C156.516 100.977 155.43 99.9602 155.368 98.0909H161.703V97.5227C161.703 94.2727 159.771 93.1591 157.953 93.1591C155.589 93.1591 154.021 95.0227 154.021 97.7045C154.021 100.386 155.567 102.182 158.089 102.182ZM155.368 96.9318C155.459 95.5739 156.419 94.3636 157.953 94.3636C159.408 94.3636 160.339 95.4545 160.339 96.9318H155.368ZM163.743 102H165.084V96.5455C165.084 95.267 166.016 94.3636 167.061 94.3636C168.078 94.3636 168.788 95.0284 168.788 96.0227V102H170.152V96.3182C170.152 95.1932 170.857 94.3636 172.084 94.3636C173.038 94.3636 173.857 94.8693 173.857 96.1591V102H175.197V96.1591C175.197 94.108 174.095 93.1591 172.538 93.1591C171.288 93.1591 170.374 93.733 169.925 94.6364H169.834C169.402 93.7045 168.641 93.1591 167.493 93.1591C166.357 93.1591 165.516 93.7045 165.152 94.6364H165.038V93.2727H163.743V102ZM181.308 102.182C183.081 102.182 184.376 101.295 184.786 99.9773L183.49 99.6136C183.149 100.523 182.359 100.977 181.308 100.977C179.734 100.977 178.649 99.9602 178.587 98.0909H184.922V97.5227C184.922 94.2727 182.99 93.1591 181.172 93.1591C178.808 93.1591 177.24 95.0227 177.24 97.7045C177.24 100.386 178.786 102.182 181.308 102.182ZM178.587 96.9318C178.678 95.5739 179.638 94.3636 181.172 94.3636C182.626 94.3636 183.558 95.4545 183.558 96.9318H178.587ZM188.303 96.75C188.303 95.2273 189.246 94.3636 190.53 94.3636C191.774 94.3636 192.53 95.1761 192.53 96.5455V102H193.871V96.4545C193.871 94.2273 192.683 93.1591 190.916 93.1591C189.598 93.1591 188.78 93.75 188.371 94.6364H188.257V93.2727H186.962V102H188.303V96.75ZM200.116 93.2727H198.253V91.1818H196.912V93.2727H195.594V94.4091H196.912V99.8636C196.912 101.386 198.139 102.114 199.276 102.114C199.776 102.114 200.094 102.023 200.276 101.955L200.003 100.75C199.889 100.773 199.707 100.818 199.412 100.818C198.821 100.818 198.253 100.636 198.253 99.5V94.4091H200.116V93.2727ZM207.634 98.4318C207.634 100.068 206.384 100.818 205.384 100.818C204.27 100.818 203.474 100 203.474 98.7273V93.2727H202.134V98.8182C202.134 101.045 203.315 102.114 204.952 102.114C206.27 102.114 207.134 101.409 207.543 100.523H207.634V102H208.974V93.2727H207.634V98.4318ZM211.43 102H212.771V96.5455C212.771 95.267 213.703 94.3636 214.749 94.3636C215.766 94.3636 216.476 95.0284 216.476 96.0227V102H217.839V96.3182C217.839 95.1932 218.544 94.3636 219.771 94.3636C220.726 94.3636 221.544 94.8693 221.544 96.1591V102H222.885V96.1591C222.885 94.108 221.783 93.1591 220.226 93.1591C218.976 93.1591 218.061 93.733 217.612 94.6364H217.521C217.089 93.7045 216.328 93.1591 215.18 93.1591C214.044 93.1591 213.203 93.7045 212.839 94.6364H212.726V93.2727H211.43V102ZM233.382 102.182C235.746 102.182 237.337 100.386 237.337 97.6818C237.337 94.9545 235.746 93.1591 233.382 93.1591C231.018 93.1591 229.428 94.9545 229.428 97.6818C229.428 100.386 231.018 102.182 233.382 102.182ZM233.382 100.977C231.587 100.977 230.768 99.4318 230.768 97.6818C230.768 95.9318 231.587 94.3636 233.382 94.3636C235.178 94.3636 235.996 95.9318 235.996 97.6818C235.996 99.4318 235.178 100.977 233.382 100.977ZM242.679 102.182C244.361 102.182 244.929 101.136 245.224 100.659H245.384V102H246.679V90.3636H245.338V94.6591H245.224C244.929 94.2045 244.406 93.1591 242.702 93.1591C240.497 93.1591 238.974 94.9091 238.974 97.6591C238.974 100.432 240.497 102.182 242.679 102.182ZM242.861 100.977C241.179 100.977 240.315 99.5 240.315 97.6364C240.315 95.7955 241.156 94.3636 242.861 94.3636C244.497 94.3636 245.361 95.6818 245.361 97.6364C245.361 99.6136 244.474 100.977 242.861 100.977ZM249.321 102H250.662V93.2727H249.321V102ZM250.003 91.8182C250.526 91.8182 250.957 91.4091 250.957 90.9091C250.957 90.4091 250.526 90 250.003 90C249.48 90 249.048 90.4091 249.048 90.9091C249.048 91.4091 249.48 91.8182 250.003 91.8182ZM256.663 102.182C259.027 102.182 260.618 100.386 260.618 97.6818C260.618 94.9545 259.027 93.1591 256.663 93.1591C254.3 93.1591 252.709 94.9545 252.709 97.6818C252.709 100.386 254.3 102.182 256.663 102.182ZM256.663 100.977C254.868 100.977 254.05 99.4318 254.05 97.6818C254.05 95.9318 254.868 94.3636 256.663 94.3636C258.459 94.3636 259.277 95.9318 259.277 97.6818C259.277 99.4318 258.459 100.977 256.663 100.977ZM267.165 93.2727V102.636C267.165 103.523 266.801 104.023 265.983 104.023H265.733V105.273H266.006C267.688 105.273 268.506 104.25 268.506 102.636V93.2727H267.165ZM267.824 91.8182C268.347 91.8182 268.778 91.4091 268.778 90.9091C268.778 90.4091 268.347 90 267.824 90C267.301 90 266.869 90.4091 266.869 90.9091C266.869 91.4091 267.301 91.8182 267.824 91.8182ZM276.462 98.4318C276.462 100.068 275.212 100.818 274.212 100.818C273.098 100.818 272.303 100 272.303 98.7273V93.2727H270.962V98.8182C270.962 101.045 272.143 102.114 273.78 102.114C275.098 102.114 275.962 101.409 276.371 100.523H276.462V102H277.803V93.2727H276.462V98.4318ZM286.44 95.2273C286.02 93.9886 285.077 93.1591 283.349 93.1591C281.509 93.1591 280.145 94.2045 280.145 95.6818C280.145 96.8864 280.861 97.6932 282.463 98.0682L283.918 98.4091C284.798 98.6136 285.213 99.0341 285.213 99.6364C285.213 100.386 284.418 101 283.168 101C282.071 101 281.384 100.528 281.145 99.5909L279.872 99.9091C280.185 101.392 281.406 102.182 283.19 102.182C285.219 102.182 286.599 101.074 286.599 99.5682C286.599 98.3523 285.838 97.5852 284.281 97.2045L282.986 96.8864C281.952 96.6307 281.486 96.2841 281.486 95.6136C281.486 94.8636 282.281 94.3182 283.349 94.3182C284.52 94.3182 285.003 94.9659 285.236 95.5682L286.44 95.2273ZM292.413 93.2727H290.55V91.1818H289.209V93.2727H287.891V94.4091H289.209V99.8636C289.209 101.386 290.436 102.114 291.572 102.114C292.072 102.114 292.391 102.023 292.572 101.955L292.3 100.75C292.186 100.773 292.004 100.818 291.709 100.818C291.118 100.818 290.55 100.636 290.55 99.5V94.4091H292.413V93.2727ZM297.882 102.182C300.246 102.182 301.837 100.386 301.837 97.6818C301.837 94.9545 300.246 93.1591 297.882 93.1591C295.518 93.1591 293.928 94.9545 293.928 97.6818C293.928 100.386 295.518 102.182 297.882 102.182ZM297.882 100.977C296.087 100.977 295.268 99.4318 295.268 97.6818C295.268 95.9318 296.087 94.3636 297.882 94.3636C299.678 94.3636 300.496 95.9318 300.496 97.6818C300.496 99.4318 299.678 100.977 297.882 100.977ZM304.861 102.091C305.423 102.091 305.884 101.631 305.884 101.068C305.884 100.506 305.423 100.045 304.861 100.045C304.298 100.045 303.838 100.506 303.838 101.068C303.838 101.631 304.298 102.091 304.861 102.091ZM1.40909 126H2.81818V121.455H5.36364C5.46591 121.455 5.5625 121.455 5.65909 121.449L8.11364 126H9.75L7.11932 121.193C8.60227 120.688 9.29545 119.477 9.29545 117.932C9.29545 115.875 8.06818 114.364 5.34091 114.364H1.40909V126ZM2.81818 120.182V115.614H5.29545C7.18182 115.614 7.90909 116.534 7.90909 117.932C7.90909 119.33 7.18182 120.182 5.31818 120.182H2.81818ZM12.8026 120.75C12.8026 119.227 13.7741 118.364 15.098 118.364C16.3594 118.364 17.1207 119.159 17.1207 120.545V126H18.4616V120.455C18.4616 118.21 17.2685 117.159 15.4844 117.159C14.1094 117.159 13.3253 117.733 12.9162 118.636H12.8026V114.364H11.4616V126H12.8026V120.75ZM24.4602 126.182C26.8239 126.182 28.4148 124.386 28.4148 121.682C28.4148 118.955 26.8239 117.159 24.4602 117.159C22.0966 117.159 20.5057 118.955 20.5057 121.682C20.5057 124.386 22.0966 126.182 24.4602 126.182ZM24.4602 124.977C22.6648 124.977 21.8466 123.432 21.8466 121.682C21.8466 119.932 22.6648 118.364 24.4602 118.364C26.2557 118.364 27.0739 119.932 27.0739 121.682C27.0739 123.432 26.2557 124.977 24.4602 124.977ZM31.8026 120.75C31.8026 119.227 32.7457 118.364 34.0298 118.364C35.2741 118.364 36.0298 119.176 36.0298 120.545V126H37.3707V120.455C37.3707 118.227 36.1832 117.159 34.4162 117.159C33.098 117.159 32.2798 117.75 31.8707 118.636H31.7571V117.273H30.4616V126H31.8026V120.75ZM43.3665 126.182C45.2983 126.182 46.571 125 46.7983 123.455H45.4574C45.2074 124.409 44.4119 124.977 43.3665 124.977C41.7756 124.977 40.7528 123.659 40.7528 121.636C40.7528 119.659 41.7983 118.364 43.3665 118.364C44.5483 118.364 45.2528 119.091 45.4574 119.886H46.7983C46.571 118.25 45.1847 117.159 43.3438 117.159C40.9801 117.159 39.4119 119.023 39.4119 121.682C39.4119 124.295 40.9119 126.182 43.3665 126.182ZM54.2585 122.432C54.2585 124.068 53.0085 124.818 52.0085 124.818C50.8949 124.818 50.0994 124 50.0994 122.727V117.273H48.7585V122.818C48.7585 125.045 49.9403 126.114 51.5767 126.114C52.8949 126.114 53.7585 125.409 54.1676 124.523H54.2585V126H55.5994V117.273H54.2585V122.432ZM64.2372 119.227C63.8168 117.989 62.8736 117.159 61.1463 117.159C59.3054 117.159 57.9418 118.205 57.9418 119.682C57.9418 120.886 58.6577 121.693 60.2599 122.068L61.7145 122.409C62.5952 122.614 63.0099 123.034 63.0099 123.636C63.0099 124.386 62.2145 125 60.9645 125C59.8679 125 59.1804 124.528 58.9418 123.591L57.669 123.909C57.9815 125.392 59.2031 126.182 60.9872 126.182C63.0156 126.182 64.3963 125.074 64.3963 123.568C64.3963 122.352 63.6349 121.585 62.0781 121.205L60.7827 120.886C59.7486 120.631 59.2827 120.284 59.2827 119.614C59.2827 118.864 60.0781 118.318 61.1463 118.318C62.3168 118.318 62.7997 118.966 63.0327 119.568L64.2372 119.227ZM67.392 126.091C67.9545 126.091 68.4148 125.631 68.4148 125.068C68.4148 124.506 67.9545 124.045 67.392 124.045C66.8295 124.045 66.3693 124.506 66.3693 125.068C66.3693 125.631 66.8295 126.091 67.392 126.091Z" fill="#7B7B7B"/>
<path d="M149.04 15.8773L152.082 17.7406L151.255 14.2631L153.963 11.9372L150.409 11.6512L149.04 8.35031V15.8773ZM149.04 18.4166L142.692 22.3058L144.418 15.0475L138.769 10.1941L146.183 9.59831L149.04 2.70831L151.897 9.59831L159.312 10.1941L153.662 15.0475L155.388 22.3058L149.04 18.4166Z" fill="#FF9900"/>
<path d="M12.96 18.4166L6.61177 22.3058L8.33761 15.0475L2.68921 10.1941L10.1034 9.59831L12.96 2.70831L15.8166 9.59831L23.2319 10.1941L17.5824 15.0475L19.3082 22.3058L12.96 18.4166Z" fill="#FF9900"/>
<g clip-path="url(#clip0_74:328)">
<path d="M46.98 18.4166L40.6318 22.3058L42.3576 15.0475L36.7092 10.1941L44.1234 9.59831L46.98 2.70831L49.8366 9.59831L57.2519 10.1941L51.6024 15.0475L53.3282 22.3058L46.98 18.4166Z" fill="#FF9900"/>
</g>
<path d="M81 18.4166L74.6518 22.3058L76.3776 15.0475L70.7292 10.1941L78.1434 9.59831L81 2.70831L83.8566 9.59831L91.2719 10.1941L85.6224 15.0475L87.3482 22.3058L81 18.4166Z" fill="#FF9900"/>
<path d="M115.02 18.4166L108.672 22.3058L110.398 15.0475L104.749 10.1941L112.163 9.59831L115.02 2.70831L117.877 9.59831L125.292 10.1941L119.642 15.0475L121.368 22.3058L115.02 18.4166Z" fill="#FF9900"/>
<defs>
<clipPath id="clip0_74:328">
<rect width="25.92" height="26" fill="white" transform="translate(34.02)"/>
</clipPath>
</defs>
</svg>
